<mxfile host="app.diagrams.net" modified="2023-05-30T00:53:59.102Z" agent="Mozilla/5.0 (Windows NT 10.0; Win64; x64) AppleWebKit/537.36 (KHTML, like Gecko) Chrome/113.0.0.0 Safari/537.36" etag="c9RH2vDNfbjmywsnL1ZJ" version="21.3.4" type="device">
  <diagram name="Page-1" id="UjbB3RzqP3SQkbSUT_3j">
    <mxGraphModel dx="1434" dy="756" grid="1" gridSize="10" guides="1" tooltips="1" connect="1" arrows="1" fold="1" page="1" pageScale="1" pageWidth="827" pageHeight="1169" math="0" shadow="0">
      <root>
        <mxCell id="0" />
        <mxCell id="1" parent="0" />
        <mxCell id="_1MCTNBQ8G8owL4Rn4Wr-7" style="rounded=0;orthogonalLoop=1;jettySize=auto;html=1;entryX=0.5;entryY=0;entryDx=0;entryDy=0;exitX=0.5;exitY=1;exitDx=0;exitDy=0;" edge="1" parent="1" source="_1MCTNBQ8G8owL4Rn4Wr-1" target="_1MCTNBQ8G8owL4Rn4Wr-2">
          <mxGeometry relative="1" as="geometry" />
        </mxCell>
        <mxCell id="_1MCTNBQ8G8owL4Rn4Wr-1" value="상품정보" style="rounded=1;arcSize=10;whiteSpace=wrap;html=1;align=center;" vertex="1" parent="1">
          <mxGeometry x="160" y="180" width="100" height="40" as="geometry" />
        </mxCell>
        <mxCell id="_1MCTNBQ8G8owL4Rn4Wr-2" value="상품코드" style="ellipse;whiteSpace=wrap;html=1;align=center;fontStyle=4;" vertex="1" parent="1">
          <mxGeometry x="10" y="220" width="100" height="40" as="geometry" />
        </mxCell>
        <mxCell id="_1MCTNBQ8G8owL4Rn4Wr-3" value="상품명" style="ellipse;whiteSpace=wrap;html=1;align=center;" vertex="1" parent="1">
          <mxGeometry x="24" y="270" width="100" height="40" as="geometry" />
        </mxCell>
        <mxCell id="_1MCTNBQ8G8owL4Rn4Wr-4" value="품목" style="ellipse;whiteSpace=wrap;html=1;align=center;" vertex="1" parent="1">
          <mxGeometry x="60" y="320" width="100" height="40" as="geometry" />
        </mxCell>
        <mxCell id="_1MCTNBQ8G8owL4Rn4Wr-5" value="매입단가" style="ellipse;whiteSpace=wrap;html=1;align=center;" vertex="1" parent="1">
          <mxGeometry x="100" y="390" width="100" height="40" as="geometry" />
        </mxCell>
        <mxCell id="_1MCTNBQ8G8owL4Rn4Wr-6" value="매출단가" style="ellipse;whiteSpace=wrap;html=1;align=center;" vertex="1" parent="1">
          <mxGeometry x="170" y="340" width="100" height="40" as="geometry" />
        </mxCell>
        <mxCell id="_1MCTNBQ8G8owL4Rn4Wr-8" style="rounded=0;orthogonalLoop=1;jettySize=auto;html=1;entryX=0.5;entryY=0;entryDx=0;entryDy=0;exitX=0.5;exitY=1;exitDx=0;exitDy=0;" edge="1" parent="1" source="_1MCTNBQ8G8owL4Rn4Wr-1" target="_1MCTNBQ8G8owL4Rn4Wr-3">
          <mxGeometry relative="1" as="geometry">
            <mxPoint x="290" y="80" as="sourcePoint" />
            <mxPoint x="70" y="160" as="targetPoint" />
          </mxGeometry>
        </mxCell>
        <mxCell id="_1MCTNBQ8G8owL4Rn4Wr-9" style="rounded=0;orthogonalLoop=1;jettySize=auto;html=1;entryX=0.5;entryY=0;entryDx=0;entryDy=0;exitX=0.5;exitY=1;exitDx=0;exitDy=0;" edge="1" parent="1" source="_1MCTNBQ8G8owL4Rn4Wr-1" target="_1MCTNBQ8G8owL4Rn4Wr-4">
          <mxGeometry relative="1" as="geometry">
            <mxPoint x="290" y="80" as="sourcePoint" />
            <mxPoint x="180" y="160" as="targetPoint" />
          </mxGeometry>
        </mxCell>
        <mxCell id="_1MCTNBQ8G8owL4Rn4Wr-10" style="rounded=0;orthogonalLoop=1;jettySize=auto;html=1;entryX=0.5;entryY=0;entryDx=0;entryDy=0;exitX=0.5;exitY=1;exitDx=0;exitDy=0;" edge="1" parent="1" source="_1MCTNBQ8G8owL4Rn4Wr-1" target="_1MCTNBQ8G8owL4Rn4Wr-5">
          <mxGeometry relative="1" as="geometry">
            <mxPoint x="330" y="100" as="sourcePoint" />
            <mxPoint x="290" y="160" as="targetPoint" />
          </mxGeometry>
        </mxCell>
        <mxCell id="_1MCTNBQ8G8owL4Rn4Wr-11" style="rounded=0;orthogonalLoop=1;jettySize=auto;html=1;entryX=0.5;entryY=0;entryDx=0;entryDy=0;exitX=0.5;exitY=1;exitDx=0;exitDy=0;" edge="1" parent="1" source="_1MCTNBQ8G8owL4Rn4Wr-1" target="_1MCTNBQ8G8owL4Rn4Wr-6">
          <mxGeometry relative="1" as="geometry">
            <mxPoint x="290" y="80" as="sourcePoint" />
            <mxPoint x="400" y="160" as="targetPoint" />
          </mxGeometry>
        </mxCell>
        <mxCell id="_1MCTNBQ8G8owL4Rn4Wr-12" value="고객정보" style="rounded=1;arcSize=10;whiteSpace=wrap;html=1;align=center;" vertex="1" parent="1">
          <mxGeometry x="510" y="160" width="100" height="40" as="geometry" />
        </mxCell>
        <mxCell id="_1MCTNBQ8G8owL4Rn4Wr-13" value="고객ID" style="ellipse;whiteSpace=wrap;html=1;align=center;fontStyle=4;" vertex="1" parent="1">
          <mxGeometry x="490" y="280" width="100" height="40" as="geometry" />
        </mxCell>
        <mxCell id="_1MCTNBQ8G8owL4Rn4Wr-14" value="고객이름" style="ellipse;whiteSpace=wrap;html=1;align=center;" vertex="1" parent="1">
          <mxGeometry x="550" y="340" width="100" height="40" as="geometry" />
        </mxCell>
        <mxCell id="_1MCTNBQ8G8owL4Rn4Wr-15" value="전화번호" style="ellipse;whiteSpace=wrap;html=1;align=center;" vertex="1" parent="1">
          <mxGeometry x="650" y="340" width="100" height="40" as="geometry" />
        </mxCell>
        <mxCell id="_1MCTNBQ8G8owL4Rn4Wr-16" value="주소" style="ellipse;whiteSpace=wrap;html=1;align=center;" vertex="1" parent="1">
          <mxGeometry x="660" y="250" width="100" height="40" as="geometry" />
        </mxCell>
        <mxCell id="_1MCTNBQ8G8owL4Rn4Wr-17" style="rounded=0;orthogonalLoop=1;jettySize=auto;html=1;entryX=0.5;entryY=0;entryDx=0;entryDy=0;exitX=0.5;exitY=1;exitDx=0;exitDy=0;" edge="1" parent="1" source="_1MCTNBQ8G8owL4Rn4Wr-12" target="_1MCTNBQ8G8owL4Rn4Wr-13">
          <mxGeometry relative="1" as="geometry">
            <mxPoint x="1020" y="390" as="sourcePoint" />
            <mxPoint x="800" y="450" as="targetPoint" />
          </mxGeometry>
        </mxCell>
        <mxCell id="_1MCTNBQ8G8owL4Rn4Wr-18" style="rounded=0;orthogonalLoop=1;jettySize=auto;html=1;entryX=0.5;entryY=0;entryDx=0;entryDy=0;exitX=0.5;exitY=1;exitDx=0;exitDy=0;" edge="1" parent="1" source="_1MCTNBQ8G8owL4Rn4Wr-12" target="_1MCTNBQ8G8owL4Rn4Wr-14">
          <mxGeometry relative="1" as="geometry">
            <mxPoint x="1000" y="460" as="sourcePoint" />
            <mxPoint x="830" y="505" as="targetPoint" />
          </mxGeometry>
        </mxCell>
        <mxCell id="_1MCTNBQ8G8owL4Rn4Wr-19" style="rounded=0;orthogonalLoop=1;jettySize=auto;html=1;entryX=0.5;entryY=0;entryDx=0;entryDy=0;exitX=0.5;exitY=1;exitDx=0;exitDy=0;" edge="1" parent="1" source="_1MCTNBQ8G8owL4Rn4Wr-12" target="_1MCTNBQ8G8owL4Rn4Wr-15">
          <mxGeometry relative="1" as="geometry">
            <mxPoint x="1000" y="460" as="sourcePoint" />
            <mxPoint x="940" y="505" as="targetPoint" />
          </mxGeometry>
        </mxCell>
        <mxCell id="_1MCTNBQ8G8owL4Rn4Wr-20" style="rounded=0;orthogonalLoop=1;jettySize=auto;html=1;entryX=0.5;entryY=0;entryDx=0;entryDy=0;exitX=0.5;exitY=1;exitDx=0;exitDy=0;" edge="1" parent="1" source="_1MCTNBQ8G8owL4Rn4Wr-12" target="_1MCTNBQ8G8owL4Rn4Wr-16">
          <mxGeometry relative="1" as="geometry">
            <mxPoint x="1000" y="460" as="sourcePoint" />
            <mxPoint x="1050" y="505" as="targetPoint" />
          </mxGeometry>
        </mxCell>
        <mxCell id="_1MCTNBQ8G8owL4Rn4Wr-21" value="판매내역" style="shape=rhombus;perimeter=rhombusPerimeter;whiteSpace=wrap;html=1;align=center;" vertex="1" parent="1">
          <mxGeometry x="320" y="380" width="120" height="60" as="geometry" />
        </mxCell>
        <mxCell id="_1MCTNBQ8G8owL4Rn4Wr-22" value="" style="edgeStyle=entityRelationEdgeStyle;fontSize=12;html=1;endArrow=ERoneToMany;rounded=0;exitX=1;exitY=0.5;exitDx=0;exitDy=0;entryX=0;entryY=0.5;entryDx=0;entryDy=0;" edge="1" parent="1" source="_1MCTNBQ8G8owL4Rn4Wr-1" target="_1MCTNBQ8G8owL4Rn4Wr-21">
          <mxGeometry width="100" height="100" relative="1" as="geometry">
            <mxPoint x="360" y="440" as="sourcePoint" />
            <mxPoint x="100" y="300" as="targetPoint" />
          </mxGeometry>
        </mxCell>
        <mxCell id="_1MCTNBQ8G8owL4Rn4Wr-23" value="" style="edgeStyle=entityRelationEdgeStyle;fontSize=12;html=1;endArrow=ERoneToMany;rounded=0;exitX=0;exitY=0.5;exitDx=0;exitDy=0;entryX=1;entryY=0.5;entryDx=0;entryDy=0;" edge="1" parent="1" source="_1MCTNBQ8G8owL4Rn4Wr-12" target="_1MCTNBQ8G8owL4Rn4Wr-21">
          <mxGeometry width="100" height="100" relative="1" as="geometry">
            <mxPoint x="360" y="440" as="sourcePoint" />
            <mxPoint x="460" y="340" as="targetPoint" />
          </mxGeometry>
        </mxCell>
        <mxCell id="_1MCTNBQ8G8owL4Rn4Wr-24" value="SEQ" style="ellipse;whiteSpace=wrap;html=1;align=center;fontStyle=4;" vertex="1" parent="1">
          <mxGeometry x="50" y="490" width="100" height="40" as="geometry" />
        </mxCell>
        <mxCell id="_1MCTNBQ8G8owL4Rn4Wr-25" value="거래일자" style="ellipse;whiteSpace=wrap;html=1;align=center;" vertex="1" parent="1">
          <mxGeometry x="400" y="480" width="100" height="40" as="geometry" />
        </mxCell>
        <mxCell id="_1MCTNBQ8G8owL4Rn4Wr-26" value="거래시각" style="ellipse;whiteSpace=wrap;html=1;align=center;" vertex="1" parent="1">
          <mxGeometry x="140" y="565" width="100" height="40" as="geometry" />
        </mxCell>
        <mxCell id="_1MCTNBQ8G8owL4Rn4Wr-27" value="고객ID" style="ellipse;whiteSpace=wrap;html=1;align=center;" vertex="1" parent="1">
          <mxGeometry x="160" y="490" width="100" height="40" as="geometry" />
        </mxCell>
        <mxCell id="_1MCTNBQ8G8owL4Rn4Wr-28" value="상품코드" style="ellipse;whiteSpace=wrap;html=1;align=center;" vertex="1" parent="1">
          <mxGeometry x="270" y="490" width="100" height="40" as="geometry" />
        </mxCell>
        <mxCell id="_1MCTNBQ8G8owL4Rn4Wr-29" value="수량" style="ellipse;whiteSpace=wrap;html=1;align=center;" vertex="1" parent="1">
          <mxGeometry x="250" y="565" width="100" height="40" as="geometry" />
        </mxCell>
        <mxCell id="_1MCTNBQ8G8owL4Rn4Wr-30" value="판매단가" style="ellipse;whiteSpace=wrap;html=1;align=center;" vertex="1" parent="1">
          <mxGeometry x="364" y="550" width="100" height="40" as="geometry" />
        </mxCell>
        <mxCell id="_1MCTNBQ8G8owL4Rn4Wr-31" style="rounded=0;orthogonalLoop=1;jettySize=auto;html=1;entryX=0.5;entryY=0;entryDx=0;entryDy=0;exitX=0.5;exitY=1;exitDx=0;exitDy=0;" edge="1" parent="1" source="_1MCTNBQ8G8owL4Rn4Wr-21" target="_1MCTNBQ8G8owL4Rn4Wr-24">
          <mxGeometry relative="1" as="geometry">
            <mxPoint x="370" y="330" as="sourcePoint" />
            <mxPoint x="200" y="375" as="targetPoint" />
          </mxGeometry>
        </mxCell>
        <mxCell id="_1MCTNBQ8G8owL4Rn4Wr-32" style="rounded=0;orthogonalLoop=1;jettySize=auto;html=1;entryX=0.5;entryY=0;entryDx=0;entryDy=0;exitX=0.5;exitY=1;exitDx=0;exitDy=0;" edge="1" parent="1" source="_1MCTNBQ8G8owL4Rn4Wr-21" target="_1MCTNBQ8G8owL4Rn4Wr-27">
          <mxGeometry relative="1" as="geometry">
            <mxPoint x="410" y="330" as="sourcePoint" />
            <mxPoint x="80" y="420" as="targetPoint" />
          </mxGeometry>
        </mxCell>
        <mxCell id="_1MCTNBQ8G8owL4Rn4Wr-33" style="rounded=0;orthogonalLoop=1;jettySize=auto;html=1;entryX=0.5;entryY=0;entryDx=0;entryDy=0;exitX=0.5;exitY=1;exitDx=0;exitDy=0;" edge="1" parent="1" source="_1MCTNBQ8G8owL4Rn4Wr-21" target="_1MCTNBQ8G8owL4Rn4Wr-28">
          <mxGeometry relative="1" as="geometry">
            <mxPoint x="410" y="330" as="sourcePoint" />
            <mxPoint x="190" y="420" as="targetPoint" />
          </mxGeometry>
        </mxCell>
        <mxCell id="_1MCTNBQ8G8owL4Rn4Wr-34" style="rounded=0;orthogonalLoop=1;jettySize=auto;html=1;entryX=0.5;entryY=0;entryDx=0;entryDy=0;exitX=0.5;exitY=1;exitDx=0;exitDy=0;" edge="1" parent="1" source="_1MCTNBQ8G8owL4Rn4Wr-21" target="_1MCTNBQ8G8owL4Rn4Wr-25">
          <mxGeometry relative="1" as="geometry">
            <mxPoint x="400" y="320" as="sourcePoint" />
            <mxPoint x="300" y="420" as="targetPoint" />
          </mxGeometry>
        </mxCell>
        <mxCell id="_1MCTNBQ8G8owL4Rn4Wr-35" style="rounded=0;orthogonalLoop=1;jettySize=auto;html=1;entryX=0.5;entryY=0;entryDx=0;entryDy=0;exitX=0.5;exitY=1;exitDx=0;exitDy=0;" edge="1" parent="1" source="_1MCTNBQ8G8owL4Rn4Wr-21" target="_1MCTNBQ8G8owL4Rn4Wr-26">
          <mxGeometry relative="1" as="geometry">
            <mxPoint x="410" y="330" as="sourcePoint" />
            <mxPoint x="410" y="420" as="targetPoint" />
          </mxGeometry>
        </mxCell>
        <mxCell id="_1MCTNBQ8G8owL4Rn4Wr-36" style="rounded=0;orthogonalLoop=1;jettySize=auto;html=1;entryX=0.5;entryY=0;entryDx=0;entryDy=0;exitX=0.5;exitY=1;exitDx=0;exitDy=0;" edge="1" parent="1" source="_1MCTNBQ8G8owL4Rn4Wr-21" target="_1MCTNBQ8G8owL4Rn4Wr-29">
          <mxGeometry relative="1" as="geometry">
            <mxPoint x="410" y="330" as="sourcePoint" />
            <mxPoint x="520" y="420" as="targetPoint" />
          </mxGeometry>
        </mxCell>
        <mxCell id="_1MCTNBQ8G8owL4Rn4Wr-37" style="rounded=0;orthogonalLoop=1;jettySize=auto;html=1;entryX=0.5;entryY=0;entryDx=0;entryDy=0;exitX=0.5;exitY=1;exitDx=0;exitDy=0;" edge="1" parent="1" source="_1MCTNBQ8G8owL4Rn4Wr-21" target="_1MCTNBQ8G8owL4Rn4Wr-30">
          <mxGeometry relative="1" as="geometry">
            <mxPoint x="360" y="370" as="sourcePoint" />
            <mxPoint x="630" y="420" as="targetPoint" />
          </mxGeometry>
        </mxCell>
      </root>
    </mxGraphModel>
  </diagram>
</mxfile>
